<svg width="49" height="49" viewBox="0 0 49 49" fill="none" xmlns="http://www.w3.org/2000/svg">
<path d="M38.0973 25.835C38.7756 26.5132 39.1408 27.4523 39.1408 28.4437C39.1408 29.3828 38.7756 30.3219 38.0973 31.0002C37.4191 31.6784 36.48 32.0958 35.4887 32.0958C34.5495 32.0958 33.6104 31.6784 32.88 31.0002C32.2017 30.3219 31.8365 29.3828 31.8365 28.4437C31.8365 27.4523 32.2539 26.5654 32.88 25.835C33.5582 25.1567 34.4973 24.7915 35.4887 24.7915C36.48 24.7393 37.4191 25.1567 38.0973 25.835ZM47.8539 17.6958V40.7567C47.8539 43.1045 45.9756 44.9828 43.6278 44.9828H5.85387C3.14082 44.9828 0.897346 42.7393 0.897346 40.0263V9.50452C0.897346 6.06104 3.71474 3.24365 7.15822 3.24365H36.0104C38.88 3.24365 41.0713 5.59148 41.0713 8.46104V11.5915H42.0104C45.2452 11.5915 47.8539 14.461 47.8539 17.6958ZM4.75822 9.50452C4.75822 10.6523 5.69735 11.5915 6.84517 11.5915H36.8973V8.3567C36.8973 7.83496 36.48 7.41757 35.9582 7.41757H6.84517C5.69735 7.41757 4.75822 8.3567 4.75822 9.50452ZM43.68 17.6958C43.68 16.8089 42.9495 15.7654 42.0104 15.7654H5.90604C5.43648 15.7654 5.07126 16.3915 5.07126 16.861V40.0263C5.07126 40.4437 5.43648 40.8089 5.85387 40.8089H43.6278C43.68 40.8089 43.68 40.7567 43.68 40.7567V17.6958Z" fill="#0F0F0F"/>
</svg>
