<svg width="49" height="49" viewBox="0 0 49 49" fill="none" xmlns="http://www.w3.org/2000/svg">
<path d="M41.1956 10.1131C39.0755 7.98754 36.2652 6.6902 33.2723 6.45546C30.2794 6.22072 27.3011 7.06406 24.8756 8.83312C22.3309 6.9404 19.1636 6.08215 16.0115 6.4312C12.8593 6.78025 9.95649 8.31068 7.88756 10.7143C5.81863 13.1179 4.73726 16.2162 4.86121 19.3852C4.98517 22.5541 6.30525 25.5585 8.55561 27.7931L20.9756 40.2331C22.0156 41.2567 23.4164 41.8303 24.8756 41.8303C26.3348 41.8303 27.7356 41.2567 28.7756 40.2331L41.1956 27.7931C43.5308 25.4437 44.8415 22.2657 44.8415 18.9531C44.8415 15.6406 43.5308 12.4626 41.1956 10.1131ZM38.3756 25.0331L25.9556 37.4531C25.8143 37.5958 25.6461 37.7091 25.4607 37.7864C25.2753 37.8637 25.0765 37.9035 24.8756 37.9035C24.6748 37.9035 24.4759 37.8637 24.2905 37.7864C24.1052 37.7091 23.9369 37.5958 23.7956 37.4531L11.3756 24.9731C9.80713 23.3698 8.92883 21.2161 8.92883 18.9731C8.92883 16.7302 9.80713 14.5764 11.3756 12.9731C12.9739 11.3951 15.1296 10.5103 17.3756 10.5103C19.6217 10.5103 21.7773 11.3951 23.3756 12.9731C23.5615 13.1606 23.7827 13.3094 24.0265 13.4109C24.2702 13.5124 24.5316 13.5647 24.7956 13.5647C25.0596 13.5647 25.321 13.5124 25.5648 13.4109C25.8085 13.3094 26.0297 13.1606 26.2156 12.9731C27.8139 11.3951 29.9696 10.5103 32.2156 10.5103C34.4617 10.5103 36.6173 11.3951 38.2156 12.9731C39.8057 14.5554 40.7128 16.6975 40.7427 18.9405C40.7726 21.1835 39.9229 23.349 38.3756 24.9731V25.0331Z" fill="#0F0F0F"/>
</svg>
