<svg width="41" height="41" viewBox="0 0 41 41" fill="none" xmlns="http://www.w3.org/2000/svg">
<path d="M27.0719 21.3809L22.8756 18.959V10.1133C22.8756 9.58285 22.6649 9.07414 22.2898 8.69907C21.9148 8.324 21.4061 8.11328 20.8756 8.11328C20.3452 8.11328 19.8365 8.324 19.4614 8.69907C19.0863 9.07414 18.8756 9.58285 18.8756 10.1133V20.1133C18.8755 20.4644 18.9679 20.8094 19.1434 21.1135C19.319 21.4176 19.5715 21.6702 19.8756 21.8457L25.0719 24.8457C25.2994 24.9772 25.5506 25.0625 25.8111 25.0969C26.0716 25.1313 26.3364 25.114 26.5902 25.046C26.844 24.9781 27.082 24.8608 27.2904 24.7008C27.4989 24.5408 27.6738 24.3414 27.8052 24.1138C27.9366 23.8862 28.0218 23.635 28.056 23.3745C28.0903 23.1139 28.0729 22.8492 28.0048 22.5954C27.9367 22.3416 27.8192 22.1037 27.6592 21.8953C27.4991 21.6869 27.2995 21.5121 27.0719 21.3809ZM20.8756 0.113281C16.92 0.113281 13.0532 1.28626 9.76421 3.48389C6.47523 5.68152 3.91178 8.80509 2.39803 12.4596C0.884276 16.1141 0.488209 20.1355 1.25991 24.0151C2.03162 27.8947 3.93643 31.4584 6.73348 34.2554C9.53053 37.0525 13.0942 38.9573 16.9738 39.729C20.8534 40.5007 24.8748 40.1046 28.5293 38.5909C32.1838 37.0771 35.3074 34.5137 37.505 31.2247C39.7026 27.9357 40.8756 24.0689 40.8756 20.1133C40.8697 14.8108 38.7607 9.72711 35.0112 5.97766C31.2618 2.22821 26.1781 0.119178 20.8756 0.113281ZM20.8756 36.1133C17.7111 36.1133 14.6177 35.1749 11.9865 33.4168C9.35531 31.6587 7.30455 29.1598 6.09355 26.2362C4.88255 23.3126 4.56569 20.0955 5.18306 16.9918C5.80042 13.8881 7.32427 11.0372 9.56191 8.79957C11.7996 6.56193 14.6505 5.03808 17.7542 4.42072C20.8579 3.80335 24.0749 4.12021 26.9986 5.33121C29.9222 6.54221 32.421 8.59297 34.1791 11.2242C35.9372 13.8553 36.8756 16.9488 36.8756 20.1133C36.8708 24.3553 35.1835 28.4221 32.184 31.4216C29.1844 34.4212 25.1176 36.1084 20.8756 36.1133Z" fill="#0F0F0F"/>
</svg>
