<svg width="49" height="49" viewBox="0 0 49 49" fill="none" xmlns="http://www.w3.org/2000/svg">
<g clip-path="url(#clip0_2_67)">
<path d="M44.2156 23.3133C40.1756 13.9333 32.5756 8.11328 24.3756 8.11328C16.1756 8.11328 8.57562 13.9333 4.53562 23.3133C4.4255 23.5656 4.36865 23.838 4.36865 24.1133C4.36865 24.3886 4.4255 24.6609 4.53562 24.9133C8.57562 34.2933 16.1756 40.1133 24.3756 40.1133C32.5756 40.1133 40.1756 34.2933 44.2156 24.9133C44.3257 24.6609 44.3826 24.3886 44.3826 24.1133C44.3826 23.838 44.3257 23.5656 44.2156 23.3133ZM24.3756 36.1133C18.0356 36.1133 12.0356 31.5333 8.57562 24.1133C12.0356 16.6933 18.0356 12.1133 24.3756 12.1133C30.7156 12.1133 36.7156 16.6933 40.1756 24.1133C36.7156 31.5333 30.7156 36.1133 24.3756 36.1133ZM24.3756 16.1133C22.7934 16.1133 21.2467 16.5825 19.9311 17.4615C18.6155 18.3406 17.5901 19.59 16.9846 21.0518C16.3791 22.5136 16.2207 24.1222 16.5293 25.674C16.838 27.2259 17.5999 28.6513 18.7188 29.7701C19.8376 30.889 21.2631 31.6509 22.8149 31.9596C24.3667 32.2682 25.9753 32.1098 27.4371 31.5043C28.8989 30.8988 30.1483 29.8734 31.0274 28.5578C31.9064 27.2422 32.3756 25.6955 32.3756 24.1133C32.3756 21.9915 31.5328 19.9567 30.0325 18.4564C28.5322 16.9561 26.4974 16.1133 24.3756 16.1133ZM24.3756 28.1133C23.5845 28.1133 22.8111 27.8787 22.1533 27.4392C21.4955 26.9996 20.9829 26.3749 20.6801 25.644C20.3774 24.9131 20.2981 24.1088 20.4525 23.3329C20.6068 22.557 20.9878 21.8443 21.5472 21.2849C22.1066 20.7254 22.8193 20.3445 23.5953 20.1901C24.3712 20.0358 25.1755 20.115 25.9064 20.4178C26.6373 20.7205 27.262 21.2332 27.7015 21.891C28.141 22.5488 28.3756 23.3222 28.3756 24.1133C28.3756 25.1741 27.9542 26.1916 27.204 26.9417C26.4539 27.6919 25.4365 28.1133 24.3756 28.1133Z" fill="#0F0F0F"/>
</g>
<defs>
<clipPath id="clip0_2_67">
<rect width="48" height="48" fill="white" transform="translate(0.37561 0.113281)"/>
</clipPath>
</defs>
</svg>
