<svg width="51" height="51" viewBox="0 0 51 51" fill="none" xmlns="http://www.w3.org/2000/svg">
<path fill-rule="evenodd" clip-rule="evenodd" d="M23.0156 34.6554C21.0975 32.1131 18.9236 28.9352 18.9236 25.2487C18.9236 21.3079 20.8417 17.2401 24.5502 13.8079L16.4939 6.81641C8.94913 11.3927 0.12561 18.6384 0.12561 29.952C0.12561 35.0368 3.83405 40.2487 7.41461 44.3164L23.0156 34.6554ZM48.591 34.6554C46.6729 32.1131 44.4989 28.9352 44.4989 25.2487C44.4989 21.3079 46.4171 17.2401 50.1256 13.8079L42.0694 6.81641C34.5246 11.3927 25.701 18.6384 25.701 29.952C25.701 35.0368 29.4096 40.2487 32.99 44.3164L48.591 34.6554Z" fill="white"/>
</svg>
